<svg xmlns="http://www.w3.org/2000/svg" width="800" height="400" viewBox="0 0 800 400">
  <defs>
    <linearGradient id="bg" x1="0" y1="0" x2="1" y2="1">
      <stop offset="0" stop-color="#0f766e"/>
      <stop offset="1" stop-color="#10b981"/>
    </linearGradient>
    <linearGradient id="glow" x1="0" y1="0" x2="0" y2="1">
      <stop offset="0" stop-color="#bbf7d0"/>
      <stop offset="1" stop-color="#ecfccb"/>
    </linearGradient>
  </defs>
  <rect width="800" height="400" fill="url(#bg)"/>
  <rect x="90" y="210" width="280" height="140" rx="14" fill="#064e3b" opacity="0.7"/>
  <rect x="120" y="180" width="220" height="50" rx="10" fill="#065f46"/>
  <rect x="140" y="150" width="80" height="50" rx="8" fill="#047857"/>
  <rect x="250" y="150" width="80" height="50" rx="8" fill="#047857"/>
  <rect x="140" y="240" width="60" height="40" rx="8" fill="#10b981"/>
  <rect x="220" y="240" width="60" height="40" rx="8" fill="#10b981"/>
  <rect x="300" y="240" width="60" height="40" rx="8" fill="#10b981"/>
  <rect x="140" y="300" width="220" height="20" rx="8" fill="#34d399"/>
  <rect x="420" y="90" width="300" height="200" rx="18" fill="#042f2e" opacity="0.7"/>
  <polyline points="450,230 500,190 540,210 590,140 650,170 690,120" fill="none" stroke="url(#glow)" stroke-width="4" stroke-linecap="round" stroke-linejoin="round"/>
  <circle cx="590" cy="140" r="10" fill="#facc15"/>
  <circle cx="590" cy="140" r="22" fill="none" stroke="#facc15" stroke-width="2" opacity="0.6"/>
  <path d="M580 115h20l-10-20-10 20z" fill="#facc15"/>
  <rect x="470" y="270" width="200" height="12" rx="6" fill="#22c55e"/>
  <rect x="470" y="290" width="150" height="10" rx="5" fill="#4ade80"/>
</svg>
