<svg xmlns="http://www.w3.org/2000/svg" width="800" height="400" viewBox="0 0 800 400">
  <defs>
    <linearGradient id="bg" x1="0" y1="0" x2="1" y2="1">
      <stop offset="0" stop-color="#0b6b5a"/>
      <stop offset="1" stop-color="#12b981"/>
    </linearGradient>
    <linearGradient id="steel" x1="0" y1="0" x2="1" y2="1">
      <stop offset="0" stop-color="#134e4a"/>
      <stop offset="1" stop-color="#0f766e"/>
    </linearGradient>
    <linearGradient id="screen" x1="0" y1="0" x2="0" y2="1">
      <stop offset="0" stop-color="#0b2f2f"/>
      <stop offset="1" stop-color="#052e2b"/>
    </linearGradient>
  </defs>
  <rect width="800" height="400" fill="url(#bg)"/>
  <rect x="70" y="120" width="300" height="200" rx="18" fill="url(#steel)" opacity="0.85"/>
  <rect x="100" y="90" width="240" height="60" rx="12" fill="#0f766e"/>
  <rect x="110" y="150" width="70" height="50" rx="8" fill="#10b981"/>
  <rect x="190" y="150" width="70" height="50" rx="8" fill="#10b981"/>
  <rect x="270" y="150" width="70" height="50" rx="8" fill="#10b981"/>
  <rect x="110" y="215" width="230" height="18" rx="9" fill="#34d399"/>
  <rect x="110" y="242" width="180" height="16" rx="8" fill="#4ade80"/>
  <rect x="110" y="268" width="200" height="14" rx="7" fill="#86efac"/>
  <g transform="translate(420 90)">
    <rect width="300" height="210" rx="18" fill="url(#screen)" opacity="0.9"/>
    <rect x="20" y="18" width="160" height="18" rx="9" fill="#14b8a6"/>
    <rect x="20" y="44" width="120" height="14" rx="7" fill="#2dd4bf" opacity="0.8"/>
    <polyline points="20,170 70,140 120,155 170,110 220,125 260,90" fill="none" stroke="#bbf7d0" stroke-width="3" stroke-linecap="round" stroke-linejoin="round"/>
    <circle cx="170" cy="110" r="9" fill="#facc15"/>
    <circle cx="170" cy="110" r="18" fill="none" stroke="#facc15" stroke-width="2" opacity="0.6"/>
    <path d="M162 88h16l-8-16-8 16z" fill="#facc15"/>
  </g>
  <rect x="470" y="320" width="230" height="14" rx="7" fill="#22c55e"/>
</svg>
