<svg xmlns="http://www.w3.org/2000/svg" width="800" height="400" viewBox="0 0 800 400">
  <defs>
    <linearGradient id="bg" x1="0" y1="0" x2="1" y2="1">
      <stop offset="0" stop-color="#3b34c7"/>
      <stop offset="1" stop-color="#6366f1"/>
    </linearGradient>
    <linearGradient id="panel" x1="0" y1="0" x2="0" y2="1">
      <stop offset="0" stop-color="#1e1b4b"/>
      <stop offset="1" stop-color="#2a2175"/>
    </linearGradient>
    <linearGradient id="line" x1="0" y1="0" x2="1" y2="0">
      <stop offset="0" stop-color="#c7d2fe"/>
      <stop offset="1" stop-color="#eef2ff"/>
    </linearGradient>
  </defs>
  <rect width="800" height="400" fill="url(#bg)"/>
  <rect x="90" y="70" width="620" height="260" rx="22" fill="url(#panel)" opacity="0.95"/>
  <g stroke="#4f46e5" stroke-width="2" opacity="0.5">
    <line x1="150" y1="110" x2="150" y2="310"/>
    <line x1="230" y1="110" x2="230" y2="310"/>
    <line x1="310" y1="110" x2="310" y2="310"/>
    <line x1="390" y1="110" x2="390" y2="310"/>
    <line x1="470" y1="110" x2="470" y2="310"/>
    <line x1="550" y1="110" x2="550" y2="310"/>
    <line x1="630" y1="110" x2="630" y2="310"/>
  </g>
  <polyline points="130,290 200,230 260,250 330,190 390,210 470,150 540,170 610,120 670,140" fill="none" stroke="url(#line)" stroke-width="4" stroke-linecap="round" stroke-linejoin="round"/>
  <g fill="#f8fafc">
    <circle cx="200" cy="230" r="6"/>
    <circle cx="260" cy="250" r="6"/>
    <circle cx="330" cy="190" r="6"/>
    <circle cx="390" cy="210" r="6"/>
    <circle cx="470" cy="150" r="6"/>
    <circle cx="540" cy="170" r="6"/>
    <circle cx="610" cy="120" r="6"/>
    <circle cx="670" cy="140" r="6"/>
  </g>
  <rect x="130" y="312" width="200" height="10" rx="5" fill="#a5b4fc"/>
  <rect x="350" y="312" width="140" height="10" rx="5" fill="#a5b4fc"/>
  <rect x="510" y="312" width="180" height="10" rx="5" fill="#a5b4fc"/>
</svg>
