<svg xmlns="http://www.w3.org/2000/svg" width="800" height="400" viewBox="0 0 800 400">
  <defs>
    <linearGradient id="bg" x1="0" y1="0" x2="1" y2="1">
      <stop offset="0" stop-color="#4338ca"/>
      <stop offset="1" stop-color="#6366f1"/>
    </linearGradient>
    <linearGradient id="line" x1="0" y1="0" x2="1" y2="0">
      <stop offset="0" stop-color="#c7d2fe"/>
      <stop offset="1" stop-color="#e0e7ff"/>
    </linearGradient>
  </defs>
  <rect width="800" height="400" fill="url(#bg)"/>
  <rect x="100" y="80" width="600" height="260" rx="20" fill="#1e1b4b" opacity="0.6"/>
  <g stroke="#6366f1" stroke-width="2" opacity="0.4">
    <line x1="160" y1="120" x2="160" y2="320"/>
    <line x1="240" y1="120" x2="240" y2="320"/>
    <line x1="320" y1="120" x2="320" y2="320"/>
    <line x1="400" y1="120" x2="400" y2="320"/>
    <line x1="480" y1="120" x2="480" y2="320"/>
    <line x1="560" y1="120" x2="560" y2="320"/>
    <line x1="640" y1="120" x2="640" y2="320"/>
  </g>
  <polyline points="140,300 200,240 260,260 320,200 380,220 440,160 520,180 600,130 680,150" fill="none" stroke="url(#line)" stroke-width="4" stroke-linecap="round" stroke-linejoin="round"/>
  <g fill="#f8fafc">
    <circle cx="200" cy="240" r="6"/>
    <circle cx="260" cy="260" r="6"/>
    <circle cx="320" cy="200" r="6"/>
    <circle cx="380" cy="220" r="6"/>
    <circle cx="440" cy="160" r="6"/>
    <circle cx="520" cy="180" r="6"/>
    <circle cx="600" cy="130" r="6"/>
    <circle cx="680" cy="150" r="6"/>
  </g>
  <rect x="140" y="310" width="180" height="10" rx="5" fill="#a5b4fc"/>
  <rect x="340" y="310" width="120" height="10" rx="5" fill="#a5b4fc"/>
  <rect x="480" y="310" width="200" height="10" rx="5" fill="#a5b4fc"/>
</svg>
